<mxfile host="app.diagrams.net" modified="2022-04-10T08:13:40.185Z" agent="5.0 (Windows NT 10.0; Win64; x64) AppleWebKit/537.36 (KHTML, like Gecko) Chrome/100.0.4896.75 Safari/537.36" etag="GYTjotUssPVe6m-uoA8e" version="17.4.2" type="github">
  <diagram id="C5RBs43oDa-KdzZeNtuy" name="Page-1">
    <mxGraphModel dx="1221" dy="575" grid="1" gridSize="10" guides="1" tooltips="1" connect="1" arrows="1" fold="1" page="1" pageScale="1" pageWidth="827" pageHeight="1169" math="0" shadow="0">
      <root>
        <mxCell id="WIyWlLk6GJQsqaUBKTNV-0" />
        <mxCell id="WIyWlLk6GJQsqaUBKTNV-1" parent="WIyWlLk6GJQsqaUBKTNV-0" />
        <mxCell id="0fkYuzwGPccpSuX6iHAs-66" value="" style="edgeStyle=orthogonalEdgeStyle;rounded=0;orthogonalLoop=1;jettySize=auto;html=1;" edge="1" parent="WIyWlLk6GJQsqaUBKTNV-1" source="WIyWlLk6GJQsqaUBKTNV-3" target="0fkYuzwGPccpSuX6iHAs-15">
          <mxGeometry relative="1" as="geometry" />
        </mxCell>
        <mxCell id="WIyWlLk6GJQsqaUBKTNV-3" value="진화 시스템" style="rounded=1;whiteSpace=wrap;html=1;fontSize=12;glass=0;strokeWidth=1;shadow=0;" parent="WIyWlLk6GJQsqaUBKTNV-1" vertex="1">
          <mxGeometry x="120" y="40" width="120" height="40" as="geometry" />
        </mxCell>
        <mxCell id="WIyWlLk6GJQsqaUBKTNV-7" value="사용자" style="rounded=1;whiteSpace=wrap;html=1;fontSize=12;glass=0;strokeWidth=1;shadow=0;" parent="WIyWlLk6GJQsqaUBKTNV-1" vertex="1">
          <mxGeometry x="440" y="240" width="120" height="40" as="geometry" />
        </mxCell>
        <mxCell id="0fkYuzwGPccpSuX6iHAs-3" value="" style="edgeStyle=orthogonalEdgeStyle;rounded=0;orthogonalLoop=1;jettySize=auto;html=1;" edge="1" parent="WIyWlLk6GJQsqaUBKTNV-1" target="WIyWlLk6GJQsqaUBKTNV-3">
          <mxGeometry relative="1" as="geometry">
            <mxPoint x="280" y="60" as="sourcePoint" />
          </mxGeometry>
        </mxCell>
        <mxCell id="0fkYuzwGPccpSuX6iHAs-5" value="" style="edgeStyle=orthogonalEdgeStyle;rounded=0;orthogonalLoop=1;jettySize=auto;html=1;" edge="1" parent="WIyWlLk6GJQsqaUBKTNV-1">
          <mxGeometry relative="1" as="geometry">
            <mxPoint x="400" y="60" as="sourcePoint" />
            <mxPoint x="440" y="60" as="targetPoint" />
          </mxGeometry>
        </mxCell>
        <mxCell id="0fkYuzwGPccpSuX6iHAs-8" value="" style="edgeStyle=orthogonalEdgeStyle;rounded=0;orthogonalLoop=1;jettySize=auto;html=1;" edge="1" parent="WIyWlLk6GJQsqaUBKTNV-1" target="0fkYuzwGPccpSuX6iHAs-6">
          <mxGeometry relative="1" as="geometry">
            <mxPoint x="560" y="60" as="sourcePoint" />
          </mxGeometry>
        </mxCell>
        <mxCell id="0fkYuzwGPccpSuX6iHAs-10" style="edgeStyle=orthogonalEdgeStyle;rounded=0;orthogonalLoop=1;jettySize=auto;html=1;exitX=1;exitY=0.5;exitDx=0;exitDy=0;entryX=0;entryY=0.5;entryDx=0;entryDy=0;" edge="1" parent="WIyWlLk6GJQsqaUBKTNV-1" target="0fkYuzwGPccpSuX6iHAs-7">
          <mxGeometry relative="1" as="geometry">
            <mxPoint x="560" y="60" as="sourcePoint" />
          </mxGeometry>
        </mxCell>
        <mxCell id="0fkYuzwGPccpSuX6iHAs-6" value="포션" style="rounded=1;whiteSpace=wrap;html=1;fontSize=12;glass=0;strokeWidth=1;shadow=0;" vertex="1" parent="WIyWlLk6GJQsqaUBKTNV-1">
          <mxGeometry x="600" y="40" width="120" height="40" as="geometry" />
        </mxCell>
        <mxCell id="0fkYuzwGPccpSuX6iHAs-7" value="믹스종" style="rounded=1;whiteSpace=wrap;html=1;fontSize=12;glass=0;strokeWidth=1;shadow=0;" vertex="1" parent="WIyWlLk6GJQsqaUBKTNV-1">
          <mxGeometry x="600" y="120" width="120" height="40" as="geometry" />
        </mxCell>
        <mxCell id="0fkYuzwGPccpSuX6iHAs-13" value="" style="edgeStyle=orthogonalEdgeStyle;rounded=0;orthogonalLoop=1;jettySize=auto;html=1;" edge="1" parent="WIyWlLk6GJQsqaUBKTNV-1" source="0fkYuzwGPccpSuX6iHAs-11" target="0fkYuzwGPccpSuX6iHAs-12">
          <mxGeometry relative="1" as="geometry" />
        </mxCell>
        <mxCell id="0fkYuzwGPccpSuX6iHAs-11" value="컨텐츠" style="rhombus;whiteSpace=wrap;html=1;shadow=0;fontFamily=Helvetica;fontSize=12;align=center;strokeWidth=1;spacing=6;spacingTop=-4;" vertex="1" parent="WIyWlLk6GJQsqaUBKTNV-1">
          <mxGeometry x="440" y="20" width="120" height="80" as="geometry" />
        </mxCell>
        <mxCell id="0fkYuzwGPccpSuX6iHAs-14" value="" style="edgeStyle=orthogonalEdgeStyle;rounded=0;orthogonalLoop=1;jettySize=auto;html=1;" edge="1" parent="WIyWlLk6GJQsqaUBKTNV-1" source="0fkYuzwGPccpSuX6iHAs-12" target="WIyWlLk6GJQsqaUBKTNV-7">
          <mxGeometry relative="1" as="geometry" />
        </mxCell>
        <mxCell id="0fkYuzwGPccpSuX6iHAs-12" value="진화 확인" style="rounded=1;whiteSpace=wrap;html=1;fontSize=12;glass=0;strokeWidth=1;shadow=0;" vertex="1" parent="WIyWlLk6GJQsqaUBKTNV-1">
          <mxGeometry x="440" y="160" width="120" height="40" as="geometry" />
        </mxCell>
        <mxCell id="0fkYuzwGPccpSuX6iHAs-24" value="" style="edgeStyle=orthogonalEdgeStyle;rounded=0;orthogonalLoop=1;jettySize=auto;html=1;" edge="1" parent="WIyWlLk6GJQsqaUBKTNV-1" source="0fkYuzwGPccpSuX6iHAs-15" target="0fkYuzwGPccpSuX6iHAs-20">
          <mxGeometry relative="1" as="geometry" />
        </mxCell>
        <mxCell id="0fkYuzwGPccpSuX6iHAs-64" style="edgeStyle=orthogonalEdgeStyle;rounded=0;orthogonalLoop=1;jettySize=auto;html=1;entryX=0;entryY=0.5;entryDx=0;entryDy=0;" edge="1" parent="WIyWlLk6GJQsqaUBKTNV-1" source="0fkYuzwGPccpSuX6iHAs-15" target="0fkYuzwGPccpSuX6iHAs-21">
          <mxGeometry relative="1" as="geometry">
            <Array as="points">
              <mxPoint x="180" y="260" />
            </Array>
          </mxGeometry>
        </mxCell>
        <mxCell id="0fkYuzwGPccpSuX6iHAs-15" value="거래소" style="rhombus;whiteSpace=wrap;html=1;shadow=0;fontFamily=Helvetica;fontSize=12;align=center;strokeWidth=1;spacing=6;spacingTop=-4;" vertex="1" parent="WIyWlLk6GJQsqaUBKTNV-1">
          <mxGeometry x="120" y="140" width="120" height="80" as="geometry" />
        </mxCell>
        <mxCell id="0fkYuzwGPccpSuX6iHAs-25" style="edgeStyle=orthogonalEdgeStyle;rounded=0;orthogonalLoop=1;jettySize=auto;html=1;entryX=0;entryY=0.5;entryDx=0;entryDy=0;" edge="1" parent="WIyWlLk6GJQsqaUBKTNV-1" source="0fkYuzwGPccpSuX6iHAs-20" target="WIyWlLk6GJQsqaUBKTNV-7">
          <mxGeometry relative="1" as="geometry" />
        </mxCell>
        <mxCell id="0fkYuzwGPccpSuX6iHAs-20" value="클럽스" style="rounded=1;whiteSpace=wrap;html=1;fontSize=12;glass=0;strokeWidth=1;shadow=0;" vertex="1" parent="WIyWlLk6GJQsqaUBKTNV-1">
          <mxGeometry x="280" y="160" width="120" height="40" as="geometry" />
        </mxCell>
        <mxCell id="0fkYuzwGPccpSuX6iHAs-22" value="" style="edgeStyle=orthogonalEdgeStyle;rounded=0;orthogonalLoop=1;jettySize=auto;html=1;" edge="1" parent="WIyWlLk6GJQsqaUBKTNV-1" source="0fkYuzwGPccpSuX6iHAs-21" target="WIyWlLk6GJQsqaUBKTNV-7">
          <mxGeometry relative="1" as="geometry" />
        </mxCell>
        <mxCell id="0fkYuzwGPccpSuX6iHAs-21" value="오픈씨" style="rounded=1;whiteSpace=wrap;html=1;fontSize=12;glass=0;strokeWidth=1;shadow=0;" vertex="1" parent="WIyWlLk6GJQsqaUBKTNV-1">
          <mxGeometry x="280" y="240" width="120" height="40" as="geometry" />
        </mxCell>
        <mxCell id="0fkYuzwGPccpSuX6iHAs-47" value="Actor" style="shape=umlActor;verticalLabelPosition=bottom;verticalAlign=top;html=1;outlineConnect=0;" vertex="1" parent="WIyWlLk6GJQsqaUBKTNV-1">
          <mxGeometry x="520" y="230" width="30" height="60" as="geometry" />
        </mxCell>
        <mxCell id="0fkYuzwGPccpSuX6iHAs-59" style="edgeStyle=orthogonalEdgeStyle;rounded=0;orthogonalLoop=1;jettySize=auto;html=1;exitX=0.25;exitY=1;exitDx=0;exitDy=0;entryX=0;entryY=0.5;entryDx=0;entryDy=0;" edge="1" parent="WIyWlLk6GJQsqaUBKTNV-1" target="0fkYuzwGPccpSuX6iHAs-57">
          <mxGeometry relative="1" as="geometry">
            <mxPoint x="560" y="60" as="sourcePoint" />
            <Array as="points">
              <mxPoint x="580" y="60" />
              <mxPoint x="580" y="220" />
            </Array>
          </mxGeometry>
        </mxCell>
        <mxCell id="0fkYuzwGPccpSuX6iHAs-60" style="edgeStyle=orthogonalEdgeStyle;rounded=0;orthogonalLoop=1;jettySize=auto;html=1;exitX=0.5;exitY=1;exitDx=0;exitDy=0;entryX=0;entryY=0.5;entryDx=0;entryDy=0;" edge="1" parent="WIyWlLk6GJQsqaUBKTNV-1" target="0fkYuzwGPccpSuX6iHAs-58">
          <mxGeometry relative="1" as="geometry">
            <mxPoint x="575" y="60" as="sourcePoint" />
            <Array as="points">
              <mxPoint x="580" y="60" />
              <mxPoint x="580" y="300" />
            </Array>
          </mxGeometry>
        </mxCell>
        <mxCell id="0fkYuzwGPccpSuX6iHAs-52" value="&lt;span style=&quot;color: rgb(0, 0, 0); font-family: helvetica; font-size: 12px; font-style: normal; font-weight: 400; letter-spacing: normal; text-align: center; text-indent: 0px; text-transform: none; word-spacing: 0px; background-color: rgb(248, 249, 250); display: inline; float: none;&quot;&gt;오프체인&lt;/span&gt;" style="text;whiteSpace=wrap;html=1;" vertex="1" parent="WIyWlLk6GJQsqaUBKTNV-1">
          <mxGeometry x="600" y="100" width="70" height="30" as="geometry" />
        </mxCell>
        <mxCell id="0fkYuzwGPccpSuX6iHAs-53" value="&lt;span style=&quot;color: rgb(0, 0, 0); font-family: helvetica; font-size: 12px; font-style: normal; font-weight: 400; letter-spacing: normal; text-align: center; text-indent: 0px; text-transform: none; word-spacing: 0px; background-color: rgb(248, 249, 250); display: inline; float: none;&quot;&gt;오프체인&lt;/span&gt;" style="text;whiteSpace=wrap;html=1;" vertex="1" parent="WIyWlLk6GJQsqaUBKTNV-1">
          <mxGeometry x="120" y="20" width="70" height="30" as="geometry" />
        </mxCell>
        <mxCell id="0fkYuzwGPccpSuX6iHAs-57" value="상자깡" style="rounded=1;whiteSpace=wrap;html=1;fontSize=12;glass=0;strokeWidth=1;shadow=0;" vertex="1" parent="WIyWlLk6GJQsqaUBKTNV-1">
          <mxGeometry x="600" y="200" width="120" height="40" as="geometry" />
        </mxCell>
        <mxCell id="0fkYuzwGPccpSuX6iHAs-58" value="스톤 채굴" style="rounded=1;whiteSpace=wrap;html=1;fontSize=12;glass=0;strokeWidth=1;shadow=0;" vertex="1" parent="WIyWlLk6GJQsqaUBKTNV-1">
          <mxGeometry x="600" y="280" width="120" height="40" as="geometry" />
        </mxCell>
        <mxCell id="0fkYuzwGPccpSuX6iHAs-62" value="&lt;span style=&quot;color: rgb(0 , 0 , 0) ; font-family: &amp;#34;helvetica&amp;#34; ; font-size: 12px ; font-style: normal ; font-weight: 400 ; letter-spacing: normal ; text-align: center ; text-indent: 0px ; text-transform: none ; word-spacing: 0px ; background-color: rgb(248 , 249 , 250) ; display: inline ; float: none&quot;&gt;온체인&lt;/span&gt;" style="text;whiteSpace=wrap;html=1;" vertex="1" parent="WIyWlLk6GJQsqaUBKTNV-1">
          <mxGeometry x="600" y="180" width="70" height="30" as="geometry" />
        </mxCell>
        <mxCell id="0fkYuzwGPccpSuX6iHAs-67" value="&lt;span style=&quot;color: rgb(0, 0, 0); font-family: helvetica; font-size: 12px; font-style: normal; font-weight: 400; letter-spacing: normal; text-align: center; text-indent: 0px; text-transform: none; word-spacing: 0px; background-color: rgb(248, 249, 250); display: inline; float: none;&quot;&gt;오프체인&lt;/span&gt;" style="text;whiteSpace=wrap;html=1;" vertex="1" parent="WIyWlLk6GJQsqaUBKTNV-1">
          <mxGeometry x="600" y="20" width="70" height="30" as="geometry" />
        </mxCell>
        <mxCell id="0fkYuzwGPccpSuX6iHAs-69" value="&lt;span style=&quot;color: rgb(0 , 0 , 0) ; font-family: &amp;#34;helvetica&amp;#34; ; font-size: 12px ; font-style: normal ; font-weight: 400 ; letter-spacing: normal ; text-align: center ; text-indent: 0px ; text-transform: none ; word-spacing: 0px ; background-color: rgb(248 , 249 , 250) ; display: inline ; float: none&quot;&gt;온체인&lt;/span&gt;" style="text;whiteSpace=wrap;html=1;" vertex="1" parent="WIyWlLk6GJQsqaUBKTNV-1">
          <mxGeometry x="600" y="260" width="70" height="30" as="geometry" />
        </mxCell>
        <mxCell id="0fkYuzwGPccpSuX6iHAs-71" value="IPFS" style="shape=callout;whiteSpace=wrap;html=1;perimeter=calloutPerimeter;" vertex="1" parent="WIyWlLk6GJQsqaUBKTNV-1">
          <mxGeometry x="280" y="40" width="120" height="80" as="geometry" />
        </mxCell>
        <mxCell id="0fkYuzwGPccpSuX6iHAs-72" value="" style="edgeStyle=orthogonalEdgeStyle;rounded=0;orthogonalLoop=1;jettySize=auto;html=1;" edge="1" parent="WIyWlLk6GJQsqaUBKTNV-1" source="0fkYuzwGPccpSuX6iHAs-73" target="0fkYuzwGPccpSuX6iHAs-87">
          <mxGeometry relative="1" as="geometry" />
        </mxCell>
        <mxCell id="0fkYuzwGPccpSuX6iHAs-73" value="진화 시스템" style="rounded=1;whiteSpace=wrap;html=1;fontSize=12;glass=0;strokeWidth=1;shadow=0;fillColor=#f8cecc;strokeColor=#b85450;fontColor=#9933FF;fontStyle=1" vertex="1" parent="WIyWlLk6GJQsqaUBKTNV-1">
          <mxGeometry x="120" y="381" width="120" height="40" as="geometry" />
        </mxCell>
        <mxCell id="0fkYuzwGPccpSuX6iHAs-74" value="사용자" style="rounded=1;whiteSpace=wrap;html=1;fontSize=12;glass=0;strokeWidth=1;shadow=0;" vertex="1" parent="WIyWlLk6GJQsqaUBKTNV-1">
          <mxGeometry x="440" y="581" width="120" height="40" as="geometry" />
        </mxCell>
        <mxCell id="0fkYuzwGPccpSuX6iHAs-75" value="" style="edgeStyle=orthogonalEdgeStyle;rounded=0;orthogonalLoop=1;jettySize=auto;html=1;" edge="1" parent="WIyWlLk6GJQsqaUBKTNV-1" target="0fkYuzwGPccpSuX6iHAs-73">
          <mxGeometry relative="1" as="geometry">
            <mxPoint x="280" y="401" as="sourcePoint" />
          </mxGeometry>
        </mxCell>
        <mxCell id="0fkYuzwGPccpSuX6iHAs-76" value="" style="edgeStyle=orthogonalEdgeStyle;rounded=0;orthogonalLoop=1;jettySize=auto;html=1;" edge="1" parent="WIyWlLk6GJQsqaUBKTNV-1">
          <mxGeometry relative="1" as="geometry">
            <mxPoint x="400" y="401" as="sourcePoint" />
            <mxPoint x="440" y="401" as="targetPoint" />
          </mxGeometry>
        </mxCell>
        <mxCell id="0fkYuzwGPccpSuX6iHAs-77" value="" style="edgeStyle=orthogonalEdgeStyle;rounded=0;orthogonalLoop=1;jettySize=auto;html=1;" edge="1" parent="WIyWlLk6GJQsqaUBKTNV-1" target="0fkYuzwGPccpSuX6iHAs-79">
          <mxGeometry relative="1" as="geometry">
            <mxPoint x="560" y="401" as="sourcePoint" />
          </mxGeometry>
        </mxCell>
        <mxCell id="0fkYuzwGPccpSuX6iHAs-78" style="edgeStyle=orthogonalEdgeStyle;rounded=0;orthogonalLoop=1;jettySize=auto;html=1;exitX=1;exitY=0.5;exitDx=0;exitDy=0;entryX=0;entryY=0.5;entryDx=0;entryDy=0;" edge="1" parent="WIyWlLk6GJQsqaUBKTNV-1" target="0fkYuzwGPccpSuX6iHAs-80">
          <mxGeometry relative="1" as="geometry">
            <mxPoint x="560" y="401" as="sourcePoint" />
          </mxGeometry>
        </mxCell>
        <mxCell id="0fkYuzwGPccpSuX6iHAs-79" value="포션" style="rounded=1;whiteSpace=wrap;html=1;fontSize=12;glass=0;strokeWidth=1;shadow=0;fillColor=#ffe6cc;strokeColor=#d79b00;" vertex="1" parent="WIyWlLk6GJQsqaUBKTNV-1">
          <mxGeometry x="600" y="381" width="120" height="40" as="geometry" />
        </mxCell>
        <mxCell id="0fkYuzwGPccpSuX6iHAs-80" value="믹스종" style="rounded=1;whiteSpace=wrap;html=1;fontSize=12;glass=0;strokeWidth=1;shadow=0;fillColor=#ffe6cc;strokeColor=#d79b00;" vertex="1" parent="WIyWlLk6GJQsqaUBKTNV-1">
          <mxGeometry x="600" y="461" width="120" height="40" as="geometry" />
        </mxCell>
        <mxCell id="0fkYuzwGPccpSuX6iHAs-81" value="" style="edgeStyle=orthogonalEdgeStyle;rounded=0;orthogonalLoop=1;jettySize=auto;html=1;" edge="1" parent="WIyWlLk6GJQsqaUBKTNV-1" source="0fkYuzwGPccpSuX6iHAs-82" target="0fkYuzwGPccpSuX6iHAs-84">
          <mxGeometry relative="1" as="geometry" />
        </mxCell>
        <mxCell id="0fkYuzwGPccpSuX6iHAs-82" value="컨텐츠" style="rhombus;whiteSpace=wrap;html=1;shadow=0;fontFamily=Helvetica;fontSize=12;align=center;strokeWidth=1;spacing=6;spacingTop=-4;" vertex="1" parent="WIyWlLk6GJQsqaUBKTNV-1">
          <mxGeometry x="440" y="361" width="120" height="80" as="geometry" />
        </mxCell>
        <mxCell id="0fkYuzwGPccpSuX6iHAs-83" value="" style="edgeStyle=orthogonalEdgeStyle;rounded=0;orthogonalLoop=1;jettySize=auto;html=1;" edge="1" parent="WIyWlLk6GJQsqaUBKTNV-1" source="0fkYuzwGPccpSuX6iHAs-84" target="0fkYuzwGPccpSuX6iHAs-74">
          <mxGeometry relative="1" as="geometry" />
        </mxCell>
        <mxCell id="0fkYuzwGPccpSuX6iHAs-84" value="진화 확인" style="rounded=1;whiteSpace=wrap;html=1;fontSize=12;glass=0;strokeWidth=1;shadow=0;fontStyle=0;fillColor=#ffe6cc;strokeColor=#d79b00;" vertex="1" parent="WIyWlLk6GJQsqaUBKTNV-1">
          <mxGeometry x="440" y="501" width="120" height="40" as="geometry" />
        </mxCell>
        <mxCell id="0fkYuzwGPccpSuX6iHAs-85" value="" style="edgeStyle=orthogonalEdgeStyle;rounded=0;orthogonalLoop=1;jettySize=auto;html=1;" edge="1" parent="WIyWlLk6GJQsqaUBKTNV-1" source="0fkYuzwGPccpSuX6iHAs-87" target="0fkYuzwGPccpSuX6iHAs-89">
          <mxGeometry relative="1" as="geometry" />
        </mxCell>
        <mxCell id="0fkYuzwGPccpSuX6iHAs-86" style="edgeStyle=orthogonalEdgeStyle;rounded=0;orthogonalLoop=1;jettySize=auto;html=1;entryX=0;entryY=0.5;entryDx=0;entryDy=0;" edge="1" parent="WIyWlLk6GJQsqaUBKTNV-1" source="0fkYuzwGPccpSuX6iHAs-87" target="0fkYuzwGPccpSuX6iHAs-91">
          <mxGeometry relative="1" as="geometry">
            <Array as="points">
              <mxPoint x="180" y="601" />
            </Array>
          </mxGeometry>
        </mxCell>
        <mxCell id="0fkYuzwGPccpSuX6iHAs-87" value="거래소" style="rhombus;whiteSpace=wrap;html=1;shadow=0;fontFamily=Helvetica;fontSize=12;align=center;strokeWidth=1;spacing=6;spacingTop=-4;" vertex="1" parent="WIyWlLk6GJQsqaUBKTNV-1">
          <mxGeometry x="120" y="481" width="120" height="80" as="geometry" />
        </mxCell>
        <mxCell id="0fkYuzwGPccpSuX6iHAs-88" style="edgeStyle=orthogonalEdgeStyle;rounded=0;orthogonalLoop=1;jettySize=auto;html=1;entryX=0;entryY=0.5;entryDx=0;entryDy=0;" edge="1" parent="WIyWlLk6GJQsqaUBKTNV-1" source="0fkYuzwGPccpSuX6iHAs-89" target="0fkYuzwGPccpSuX6iHAs-74">
          <mxGeometry relative="1" as="geometry" />
        </mxCell>
        <mxCell id="0fkYuzwGPccpSuX6iHAs-89" value="클럽스" style="rounded=1;whiteSpace=wrap;html=1;fontSize=12;glass=0;strokeWidth=1;shadow=0;fillColor=#ffe6cc;strokeColor=#d79b00;" vertex="1" parent="WIyWlLk6GJQsqaUBKTNV-1">
          <mxGeometry x="280" y="501" width="120" height="40" as="geometry" />
        </mxCell>
        <mxCell id="0fkYuzwGPccpSuX6iHAs-90" value="" style="edgeStyle=orthogonalEdgeStyle;rounded=0;orthogonalLoop=1;jettySize=auto;html=1;" edge="1" parent="WIyWlLk6GJQsqaUBKTNV-1" source="0fkYuzwGPccpSuX6iHAs-91" target="0fkYuzwGPccpSuX6iHAs-74">
          <mxGeometry relative="1" as="geometry" />
        </mxCell>
        <mxCell id="0fkYuzwGPccpSuX6iHAs-91" value="오픈씨" style="rounded=1;whiteSpace=wrap;html=1;fontSize=12;glass=0;strokeWidth=1;shadow=0;fillColor=#ffe6cc;strokeColor=#d79b00;" vertex="1" parent="WIyWlLk6GJQsqaUBKTNV-1">
          <mxGeometry x="280" y="581" width="120" height="40" as="geometry" />
        </mxCell>
        <mxCell id="0fkYuzwGPccpSuX6iHAs-92" value="Actor" style="shape=umlActor;verticalLabelPosition=bottom;verticalAlign=top;html=1;outlineConnect=0;" vertex="1" parent="WIyWlLk6GJQsqaUBKTNV-1">
          <mxGeometry x="520" y="571" width="30" height="60" as="geometry" />
        </mxCell>
        <mxCell id="0fkYuzwGPccpSuX6iHAs-93" style="edgeStyle=orthogonalEdgeStyle;rounded=0;orthogonalLoop=1;jettySize=auto;html=1;exitX=0.25;exitY=1;exitDx=0;exitDy=0;entryX=0;entryY=0.5;entryDx=0;entryDy=0;" edge="1" parent="WIyWlLk6GJQsqaUBKTNV-1" target="0fkYuzwGPccpSuX6iHAs-97">
          <mxGeometry relative="1" as="geometry">
            <mxPoint x="560" y="401" as="sourcePoint" />
            <Array as="points">
              <mxPoint x="580" y="401" />
              <mxPoint x="580" y="561" />
            </Array>
          </mxGeometry>
        </mxCell>
        <mxCell id="0fkYuzwGPccpSuX6iHAs-94" style="edgeStyle=orthogonalEdgeStyle;rounded=0;orthogonalLoop=1;jettySize=auto;html=1;exitX=0.5;exitY=1;exitDx=0;exitDy=0;entryX=0;entryY=0.5;entryDx=0;entryDy=0;" edge="1" parent="WIyWlLk6GJQsqaUBKTNV-1" target="0fkYuzwGPccpSuX6iHAs-98">
          <mxGeometry relative="1" as="geometry">
            <mxPoint x="575" y="401" as="sourcePoint" />
            <Array as="points">
              <mxPoint x="580" y="401" />
              <mxPoint x="580" y="641" />
            </Array>
          </mxGeometry>
        </mxCell>
        <mxCell id="0fkYuzwGPccpSuX6iHAs-95" value="&lt;span style=&quot;font-family: helvetica; font-size: 12px; font-style: normal; letter-spacing: normal; text-align: center; text-indent: 0px; text-transform: none; word-spacing: 0px; background-color: rgb(248, 249, 250); display: inline; float: none;&quot;&gt;온체인&lt;/span&gt;" style="text;whiteSpace=wrap;html=1;fontColor=#9933FF;fontStyle=1" vertex="1" parent="WIyWlLk6GJQsqaUBKTNV-1">
          <mxGeometry x="600" y="441" width="70" height="30" as="geometry" />
        </mxCell>
        <mxCell id="0fkYuzwGPccpSuX6iHAs-96" value="&lt;span style=&quot;color: rgb(0, 0, 0); font-family: helvetica; font-size: 12px; font-style: normal; font-weight: 400; letter-spacing: normal; text-align: center; text-indent: 0px; text-transform: none; word-spacing: 0px; background-color: rgb(248, 249, 250); display: inline; float: none;&quot;&gt;오프체인&lt;/span&gt;" style="text;whiteSpace=wrap;html=1;" vertex="1" parent="WIyWlLk6GJQsqaUBKTNV-1">
          <mxGeometry x="120" y="361" width="70" height="30" as="geometry" />
        </mxCell>
        <mxCell id="0fkYuzwGPccpSuX6iHAs-97" value="상자깡" style="rounded=1;whiteSpace=wrap;html=1;fontSize=12;glass=0;strokeWidth=1;shadow=0;" vertex="1" parent="WIyWlLk6GJQsqaUBKTNV-1">
          <mxGeometry x="600" y="541" width="120" height="40" as="geometry" />
        </mxCell>
        <mxCell id="0fkYuzwGPccpSuX6iHAs-98" value="스톤 채굴" style="rounded=1;whiteSpace=wrap;html=1;fontSize=12;glass=0;strokeWidth=1;shadow=0;" vertex="1" parent="WIyWlLk6GJQsqaUBKTNV-1">
          <mxGeometry x="600" y="621" width="120" height="40" as="geometry" />
        </mxCell>
        <mxCell id="0fkYuzwGPccpSuX6iHAs-99" value="&lt;span style=&quot;color: rgb(0 , 0 , 0) ; font-family: &amp;#34;helvetica&amp;#34; ; font-size: 12px ; font-style: normal ; font-weight: 400 ; letter-spacing: normal ; text-align: center ; text-indent: 0px ; text-transform: none ; word-spacing: 0px ; background-color: rgb(248 , 249 , 250) ; display: inline ; float: none&quot;&gt;온체인&lt;/span&gt;" style="text;whiteSpace=wrap;html=1;" vertex="1" parent="WIyWlLk6GJQsqaUBKTNV-1">
          <mxGeometry x="600" y="521" width="70" height="30" as="geometry" />
        </mxCell>
        <mxCell id="0fkYuzwGPccpSuX6iHAs-100" value="&lt;span style=&quot;font-family: helvetica; font-size: 12px; font-style: normal; letter-spacing: normal; text-align: center; text-indent: 0px; text-transform: none; word-spacing: 0px; background-color: rgb(248, 249, 250); display: inline; float: none;&quot;&gt;온체인&lt;/span&gt;" style="text;whiteSpace=wrap;html=1;fontColor=#9933FF;fontStyle=1" vertex="1" parent="WIyWlLk6GJQsqaUBKTNV-1">
          <mxGeometry x="600" y="361" width="70" height="30" as="geometry" />
        </mxCell>
        <mxCell id="0fkYuzwGPccpSuX6iHAs-101" value="&lt;span style=&quot;color: rgb(0 , 0 , 0) ; font-family: &amp;#34;helvetica&amp;#34; ; font-size: 12px ; font-style: normal ; font-weight: 400 ; letter-spacing: normal ; text-align: center ; text-indent: 0px ; text-transform: none ; word-spacing: 0px ; background-color: rgb(248 , 249 , 250) ; display: inline ; float: none&quot;&gt;온체인&lt;/span&gt;" style="text;whiteSpace=wrap;html=1;" vertex="1" parent="WIyWlLk6GJQsqaUBKTNV-1">
          <mxGeometry x="600" y="601" width="70" height="30" as="geometry" />
        </mxCell>
        <mxCell id="0fkYuzwGPccpSuX6iHAs-102" value="API" style="shape=callout;whiteSpace=wrap;html=1;perimeter=calloutPerimeter;fillColor=#ffe6cc;strokeColor=#d79b00;fontStyle=1;fontColor=#9933FF;" vertex="1" parent="WIyWlLk6GJQsqaUBKTNV-1">
          <mxGeometry x="280" y="381" width="120" height="80" as="geometry" />
        </mxCell>
        <mxCell id="0fkYuzwGPccpSuX6iHAs-103" value="&lt;span style=&quot;font-family: &amp;#34;helvetica&amp;#34; ; font-size: 12px ; font-style: normal ; letter-spacing: normal ; text-align: center ; text-indent: 0px ; text-transform: none ; word-spacing: 0px ; background-color: rgb(248 , 249 , 250) ; display: inline ; float: none&quot;&gt;이미지 추가 가능&lt;/span&gt;" style="text;whiteSpace=wrap;html=1;fontColor=#9933FF;fontStyle=1" vertex="1" parent="WIyWlLk6GJQsqaUBKTNV-1">
          <mxGeometry x="438" y="493" width="110" height="30" as="geometry" />
        </mxCell>
        <mxCell id="0fkYuzwGPccpSuX6iHAs-104" value="&lt;span style=&quot;font-family: &amp;#34;helvetica&amp;#34; ; font-size: 12px ; font-style: normal ; letter-spacing: normal ; text-align: center ; text-indent: 0px ; text-transform: none ; word-spacing: 0px ; background-color: rgb(248 , 249 , 250) ; display: inline ; float: none&quot;&gt;이미지 반영 매우 빠름&lt;/span&gt;" style="text;whiteSpace=wrap;html=1;fontColor=#9933FF;fontStyle=1" vertex="1" parent="WIyWlLk6GJQsqaUBKTNV-1">
          <mxGeometry x="278" y="494" width="130" height="30" as="geometry" />
        </mxCell>
        <mxCell id="0fkYuzwGPccpSuX6iHAs-106" value="&lt;span style=&quot;font-family: &amp;#34;helvetica&amp;#34; ; font-size: 12px ; font-style: normal ; letter-spacing: normal ; text-align: center ; text-indent: 0px ; text-transform: none ; word-spacing: 0px ; background-color: rgb(248 , 249 , 250) ; display: inline ; float: none&quot;&gt;이미지 반영 매우 빠름&lt;/span&gt;" style="text;whiteSpace=wrap;html=1;fontColor=#9933FF;fontStyle=1" vertex="1" parent="WIyWlLk6GJQsqaUBKTNV-1">
          <mxGeometry x="279" y="574" width="130" height="30" as="geometry" />
        </mxCell>
      </root>
    </mxGraphModel>
  </diagram>
</mxfile>
